<svg width="144" height="85" viewBox="0 0 144 85" fill="none" xmlns="http://www.w3.org/2000/svg">
<path d="M29.8726 14.6536L15.9922 61.8343L22.5389 56.279L31.4935 39.2669C31.4935 39.2669 32.8784 33.0664 33.6653 30.7687C33.8069 30.3753 34.043 29.6513 34.279 29.2264C35.9 26.3622 38.1189 22.9 40.0389 19.2017C40.4166 18.4778 40.574 17.6909 40.5425 16.8726C36.9544 16.1172 29.8726 14.6536 29.8726 14.6536Z" fill="url(#paint0_linear)"/>
<path d="M40.5581 16.8729C40.5267 16.2277 40.4008 15.5982 40.2119 14.9844C39.0474 11.3491 36.3091 6.14 33.6337 2.28434C32.5163 0.67913 31.1472 -0.186425 28.7236 0.033898C21.091 0.710605 12.2781 2.74073 5.57396 5.22723C3.43367 6.0141 0.553732 7.16293 0.364883 11.4592C-0.752471 35.2069 0.821267 63.9277 3.38646 81.522C3.82711 84.4807 4.03169 85 4.31496 85C4.48808 85 4.66119 84.7797 4.75561 84.1659C5.79428 76.9267 9.52404 46.4906 11.7745 36.4187C12.3253 33.9479 13.002 32.7834 14.8275 31.3828C20.5245 27.0078 34.5937 19.7056 40.5581 16.8729Z" fill="url(#paint1_linear)"/>
<path d="M43.7843 46.0975C41.8328 42.651 37.9615 37.678 35.1287 33.9325C33.8697 32.2643 33.5865 31.0368 34.2789 29.227C34.2789 29.227 25.5289 44.1303 21.8621 50.3308C18.6517 55.7917 16.716 59.2539 15.6144 63.0151C13.8675 68.9167 11.8531 75.7467 10.783 79.3978C10.5155 80.279 10.3738 80.8456 10.6256 80.9872C10.8774 81.1289 11.444 80.7354 11.743 80.5308C22.5388 73.1028 36.5608 61.8348 42.8873 53.4626C44.8702 50.7872 45.6885 49.4495 43.7843 46.0975Z" fill="url(#paint2_linear)"/>
<path fill-rule="evenodd" clip-rule="evenodd" d="M58.6095 40.8102C59.9629 40.6843 61.694 40.6056 63.9445 40.6056C68.0676 40.6056 70.6328 41.5656 70.6328 45.7832C70.6328 48.3799 69.547 49.6231 68.8073 49.8434C68.7129 49.8749 68.6814 49.9221 68.6814 49.9851C68.6814 50.0795 68.6971 50.111 68.8388 50.1582C70.0663 50.5359 71.5141 51.905 71.5141 54.9423C71.5141 59.5691 68.4453 60.3088 64.0546 60.3088C60.6081 60.3088 58.6095 59.7895 58.6095 59.7895C58.2947 59.7265 58.1846 59.6163 58.1846 59.3331V41.2666C58.1846 40.9518 58.279 40.8417 58.6095 40.8102ZM60.0568 49.371C60.0253 49.371 60.0096 49.3395 60.0096 49.308V42.4623C60.0096 42.4308 60.0253 42.4151 60.0568 42.4151C60.3086 42.3836 61.7092 42.2577 63.8967 42.2577C66.8711 42.2577 68.8225 42.5252 68.8225 45.7671C68.8225 48.5841 67.7839 49.371 64.5262 49.371H60.0568ZM63.9754 58.656C61.5833 58.656 60.3873 58.4829 60.0883 58.4357C60.0411 58.4357 60.0096 58.3885 60.0096 58.3412V51.0548C60.0096 51.0234 60.0253 51.0076 60.0568 51.0076H64.5577C68.1773 51.0076 69.7196 51.9991 69.7196 54.7689C69.7196 58.4986 67.1229 58.656 63.9754 58.656Z" fill="#3C4F69"/>
<path fill-rule="evenodd" clip-rule="evenodd" d="M110.291 44.8226C114.461 44.8226 116.113 46.239 116.113 52.7385C116.113 58.5142 114.98 60.3239 110.023 60.3397C106.498 60.3397 104.2 58.8132 104.106 55.9804C104.011 53.0061 105.947 51.5425 109.645 51.5425H114.193C114.256 51.5425 114.304 51.4953 114.304 51.4323C114.288 47.0573 112.997 46.4908 110.102 46.4908C108.685 46.4908 107.426 46.8055 106.183 47.2462C105.805 47.3563 105.743 47.199 105.743 47.0259C105.743 46.5537 106.262 45.4679 106.781 45.279C107.662 44.98 109.016 44.8226 110.291 44.8226ZM105.916 55.8544C105.916 57.6012 107.521 58.6556 110.133 58.6556C113.989 58.6556 114.304 57.0819 114.304 53.2577C114.304 53.2105 114.256 53.1633 114.209 53.1633H109.818C106.923 53.1633 105.916 53.9659 105.916 55.8544Z" fill="#3C4F69"/>
<path d="M123.887 44.8226C119.906 44.8226 117.923 46.2075 117.923 48.9773C117.923 51.275 119.15 52.471 122.015 53.0533L123.824 53.4152C126.248 53.9346 127.192 54.4382 127.192 55.9962C127.192 57.8532 125.776 58.6873 122.738 58.6873C121.18 58.6873 119.764 58.4669 118.505 58.042C118.19 57.9476 118.08 58.0892 118.127 58.3883C118.127 58.3883 118.363 59.7574 119.182 59.9935C120.236 60.2453 121.432 60.3082 122.723 60.3082C126.956 60.3082 129.065 58.8604 129.065 55.9804C129.065 53.6828 127.79 52.5339 124.863 51.9045L123.022 51.5425C120.598 51.0704 119.733 50.4409 119.733 48.9616C119.733 47.2147 121.039 46.4121 123.856 46.4121C125.225 46.4121 126.468 46.601 127.538 46.9314C127.948 47.0573 128.042 46.8685 127.995 46.6167C127.869 45.9557 127.334 45.279 126.956 45.1216C126.563 44.9643 124.989 44.8226 123.887 44.8226Z" fill="#3C4F69"/>
<path d="M130.167 45.1205C129.805 45.1205 129.805 45.3094 129.9 45.5927C129.9 45.5927 134.243 55.759 135.691 59.1425C136.053 59.9766 135.911 60.2284 135.738 60.6533C135.471 61.2986 134.621 63.3602 134.086 64.6506C134.007 64.8237 134.007 64.9969 134.275 64.9969C134.904 64.9969 135.801 64.6821 136.022 64.2572C136.446 63.2657 136.95 62.054 137.532 60.6848L143.906 45.5927C144.032 45.2937 143.985 45.1205 143.638 45.1205C142.71 45.1205 142.002 45.451 141.86 45.7815C140.774 48.3939 137.611 56.0895 137.611 56.0895C137.186 57.1282 137.139 57.2541 137.076 57.4114C137.013 57.5531 136.856 57.5531 136.793 57.3957C136.698 57.1439 136.462 56.5931 136.258 56.0895C136.258 56.0895 133.142 48.5198 132.103 46.0176C131.851 45.4038 131.206 45.1205 130.167 45.1205Z" fill="#3C4F69"/>
<path d="M85.4092 59.1749V59.8673C85.4092 60.2293 85.5036 60.308 85.661 60.308C86.0229 60.308 86.558 59.9303 86.8098 59.6785C87.0459 59.4424 87.2347 59.1434 87.2347 58.8287V41.7851V41.0926C87.2347 40.7307 87.1403 40.652 86.9829 40.652C86.621 40.652 86.0859 41.0297 85.8341 41.2815C85.598 41.5175 85.4092 41.8165 85.4092 42.1313V59.1749Z" fill="#3C4F69"/>
<path d="M79.9482 59.1749V59.8673C79.9482 60.2293 80.0427 60.308 80.2 60.308C80.562 60.308 81.0971 59.9303 81.3489 59.6785C81.5849 59.4424 81.7738 59.1434 81.7738 58.8287V41.7851V41.0926C81.7738 40.7307 81.6794 40.652 81.522 40.652C81.16 40.652 80.6249 41.0297 80.3732 41.2815C80.1371 41.5175 79.9482 41.8165 79.9482 42.1313V59.1749Z" fill="#3C4F69"/>
<path d="M74.4727 59.1754V59.8679C74.4727 60.2298 74.5671 60.3085 74.7245 60.3085C75.0864 60.3085 75.6215 59.9308 75.8733 59.679C76.1093 59.443 76.2982 59.144 76.2982 58.8292V46.255V45.5626C76.2982 45.2006 76.2038 45.1219 76.0464 45.1219C75.6844 45.1219 75.1494 45.4996 74.8976 45.7514C74.6615 45.9875 74.4727 46.2865 74.4727 46.6013V59.1754Z" fill="#3C4F69"/>
<path d="M74.4561 43.2653C74.4561 43.6272 74.5505 43.7059 74.7079 43.7059C75.0698 43.7059 75.6364 43.3282 75.8724 43.0764C76.1085 42.8404 76.3288 42.5099 76.3288 42.085V41.0778C76.3288 40.7158 76.2344 40.6371 76.077 40.6371C75.715 40.6371 75.1485 41.0148 74.9124 41.2666C74.6764 41.5027 74.4561 41.8647 74.4561 42.2738V43.2653Z" fill="#3C4F69"/>
<path fill-rule="evenodd" clip-rule="evenodd" d="M90.1787 52.5812C90.1787 47.2934 91.7682 44.8226 96.2691 44.8226C100.691 44.8226 102.281 47.199 102.296 51.511V52.3294C102.296 53.0218 102.013 53.4782 101.1 53.4782H92.0829C92.02 53.4782 91.9885 53.4939 91.9885 53.5726C92.0829 57.0506 92.917 58.6558 96.8828 58.6558C98.2992 58.6558 99.3536 58.3568 100.754 57.8217C101.132 57.6801 101.179 57.8689 101.179 58.042C101.179 58.5142 100.676 59.6 100.156 59.7889C99.2749 60.1036 97.9687 60.3397 96.694 60.3397C91.6895 60.3397 90.1787 58.0578 90.1787 52.5812ZM91.9887 51.7311C91.9887 51.7941 92.0202 51.8256 92.0831 51.8256H100.392C100.487 51.8256 100.487 51.7941 100.487 51.7311C100.487 48.741 100.172 46.4434 96.3322 46.4434C92.7756 46.4434 92.0831 48.3633 91.9887 51.7311Z" fill="#3C4F69"/>
<defs>
<linearGradient id="paint0_linear" x1="24.651" y1="74.5943" x2="56.0554" y2="60.2072" gradientUnits="userSpaceOnUse">
<stop stop-color="#57FFED"/>
<stop offset="1" stop-color="#3179D1"/>
</linearGradient>
<linearGradient id="paint1_linear" x1="3.68024" y1="-18.7041" x2="-47.8491" y2="29.927" gradientUnits="userSpaceOnUse">
<stop stop-color="#7285A8"/>
<stop offset="0.0849021" stop-color="#6A7D9E"/>
<stop offset="0.4897" stop-color="#475975"/>
<stop offset="0.8086" stop-color="#32435B"/>
<stop offset="1" stop-color="#2A3B52"/>
</linearGradient>
<linearGradient id="paint2_linear" x1="20.483" y1="22.1815" x2="-5.36136" y2="63.3961" gradientUnits="userSpaceOnUse">
<stop stop-color="#7285A8"/>
<stop offset="0.0849021" stop-color="#6A7D9E"/>
<stop offset="0.4897" stop-color="#475975"/>
<stop offset="0.8086" stop-color="#32435B"/>
<stop offset="1" stop-color="#2A3B52"/>
</linearGradient>
</defs>
</svg>
