<svg width="432" height="255" viewBox="0 0 432 255" fill="none" xmlns="http://www.w3.org/2000/svg">
<g id="Horizontal_logo_dark_grey">
<g id="Group">
<path id="Path" d="M89.6177 43.9609L47.9766 185.503L67.6168 168.837L94.4805 117.801C94.4805 117.801 98.6352 99.1991 100.996 92.3061C101.421 91.1258 102.129 88.954 102.837 87.6793C107.7 79.0867 114.357 68.7 120.117 57.6052C121.25 55.4334 121.722 53.0728 121.627 50.6178C110.863 48.3516 89.6177 43.9609 89.6177 43.9609Z" fill="url(#paint0_linear)"/>
<path id="Path_2" d="M121.674 50.6187C121.58 48.683 121.202 46.7945 120.636 44.9532C117.142 34.0472 108.927 18.42 100.901 6.85303C97.549 2.03739 93.4416 -0.559276 86.1709 0.101694C63.273 2.13182 36.8342 8.22218 16.7219 15.6817C10.301 18.0423 1.66119 21.4888 1.09465 34.3777C-2.25741 105.621 2.4638 191.783 10.1594 244.566C11.4813 253.442 12.0951 255 12.9449 255C13.4642 255 13.9836 254.339 14.2668 252.498C17.3828 230.78 28.5721 139.472 35.3234 109.256C36.9759 101.844 39.006 98.3501 44.4826 94.1483C61.5734 81.0233 103.781 59.1169 121.674 50.6187Z" fill="url(#paint1_linear)"/>
<path id="Path_3" d="M131.353 138.292C125.499 127.953 113.884 113.034 105.386 101.797C101.609 96.7929 100.759 93.1104 102.837 87.681C102.837 87.681 76.5868 132.391 65.5863 150.992C55.9551 167.375 50.148 177.762 46.8431 189.045C41.6026 206.75 35.5594 227.24 32.349 238.193C31.5464 240.837 31.1215 242.537 31.8769 242.962C32.6323 243.387 34.3319 242.206 35.2289 241.593C67.6165 219.308 109.682 185.505 128.662 160.388C134.61 152.362 137.066 148.349 131.353 138.292Z" fill="url(#paint2_linear)"/>
</g>
<g id="Group_2">
<path id="Shape" fill-rule="evenodd" clip-rule="evenodd" d="M175.828 122.431C179.889 122.053 185.082 121.817 191.833 121.817C204.203 121.817 211.899 124.697 211.899 137.35C211.899 145.14 208.641 148.869 206.422 149.53C206.139 149.625 206.044 149.766 206.044 149.955C206.044 150.238 206.091 150.333 206.516 150.475C210.199 151.608 214.542 155.715 214.542 164.827C214.542 178.707 205.336 180.926 192.164 180.926C181.824 180.926 175.828 179.368 175.828 179.368C174.884 179.18 174.554 178.849 174.554 177.999V123.8C174.554 122.855 174.837 122.525 175.828 122.431ZM180.17 148.113C180.076 148.113 180.029 148.019 180.029 147.924V127.387C180.029 127.292 180.076 127.245 180.17 127.245C180.926 127.151 185.128 126.773 191.69 126.773C200.613 126.773 206.468 127.576 206.468 137.301C206.468 145.752 203.352 148.113 193.579 148.113H180.17ZM191.926 175.968C184.75 175.968 181.162 175.449 180.265 175.307C180.123 175.307 180.029 175.165 180.029 175.024V153.165C180.029 153.07 180.076 153.023 180.17 153.023H193.673C204.532 153.023 209.159 155.997 209.159 164.307C209.159 175.496 201.369 175.968 191.926 175.968Z" fill="#3C4F69"/>
<path id="Shape_2" fill-rule="evenodd" clip-rule="evenodd" d="M330.872 134.468C343.383 134.468 348.34 138.717 348.34 158.216C348.34 175.542 344.941 180.972 330.069 181.019C319.494 181.019 312.601 176.439 312.318 167.941C312.034 159.018 317.841 154.627 328.936 154.627H342.58C342.769 154.627 342.911 154.486 342.911 154.297C342.864 141.172 338.992 139.472 330.305 139.472C326.056 139.472 322.279 140.417 318.55 141.739C317.416 142.069 317.228 141.597 317.228 141.078C317.228 139.661 318.786 136.404 320.344 135.837C322.987 134.94 327.048 134.468 330.872 134.468ZM317.747 167.563C317.747 172.804 322.562 175.967 330.399 175.967C341.966 175.967 342.911 171.246 342.911 159.773C342.911 159.631 342.769 159.49 342.627 159.49H329.455C320.768 159.49 317.747 161.898 317.747 167.563Z" fill="#3C4F69"/>
<path id="Path_4" d="M371.662 134.468C359.717 134.468 353.769 138.623 353.769 146.932C353.769 153.825 357.451 157.413 366.044 159.16L371.473 160.246C378.744 161.804 381.577 163.315 381.577 167.989C381.577 173.56 377.327 176.062 368.215 176.062C363.541 176.062 359.292 175.401 355.515 174.126C354.571 173.843 354.241 174.268 354.382 175.165C354.382 175.165 355.09 179.272 357.546 179.98C360.709 180.736 364.297 180.925 368.168 180.925C380.868 180.925 387.195 176.581 387.195 167.941C387.195 161.048 383.371 157.602 374.589 155.713L369.065 154.627C361.795 153.211 359.198 151.323 359.198 146.885C359.198 141.644 363.117 139.236 371.568 139.236C375.675 139.236 379.405 139.803 382.615 140.794C383.843 141.172 384.126 140.605 383.984 139.85C383.607 137.867 382.001 135.837 380.868 135.365C379.688 134.893 374.967 134.468 371.662 134.468Z" fill="#3C4F69"/>
<path id="Path_5" d="M390.502 135.362C389.416 135.362 389.416 135.928 389.699 136.778C389.699 136.778 402.73 167.277 407.073 177.428C408.159 179.93 407.734 180.685 407.215 181.96C406.412 183.896 403.863 190.081 402.258 193.952C402.022 194.471 402.022 194.991 402.824 194.991C404.713 194.991 407.404 194.046 408.065 192.772C409.339 189.797 410.85 186.162 412.597 182.054L431.718 136.778C432.096 135.881 431.954 135.362 430.915 135.362C428.13 135.362 426.005 136.353 425.58 137.345C422.323 145.182 412.833 168.268 412.833 168.268C411.558 171.384 411.417 171.762 411.228 172.234C411.039 172.659 410.567 172.659 410.378 172.187C410.095 171.432 409.387 169.779 408.773 168.268C408.773 168.268 399.425 145.559 396.309 138.053C395.554 136.211 393.618 135.362 390.502 135.362Z" fill="#3C4F69"/>
<path id="Path_6" d="M256.228 177.525V179.602C256.228 180.688 256.511 180.924 256.983 180.924C258.069 180.924 259.674 179.791 260.429 179.035C261.138 178.327 261.704 177.43 261.704 176.486V125.355V123.278C261.704 122.192 261.421 121.956 260.949 121.956C259.863 121.956 258.258 123.089 257.502 123.844C256.794 124.553 256.228 125.45 256.228 126.394V177.525Z" fill="#3C4F69"/>
<path id="Path_7" d="M239.845 177.525V179.602C239.845 180.688 240.128 180.924 240.6 180.924C241.686 180.924 243.291 179.791 244.047 179.035C244.755 178.327 245.321 177.43 245.321 176.486V125.355V123.278C245.321 122.192 245.038 121.956 244.566 121.956C243.48 121.956 241.875 123.089 241.119 123.844C240.411 124.553 239.845 125.45 239.845 126.394V177.525Z" fill="#3C4F69"/>
<g id="Group_3">
<path id="Path_8" d="M223.418 177.526V179.604C223.418 180.689 223.701 180.926 224.173 180.926C225.259 180.926 226.864 179.792 227.62 179.037C228.328 178.329 228.895 177.432 228.895 176.488V138.765V136.688C228.895 135.602 228.611 135.366 228.139 135.366C227.053 135.366 225.448 136.499 224.693 137.254C223.985 137.963 223.418 138.86 223.418 139.804V177.526Z" fill="#3C4F69"/>
<path id="Path_9" d="M223.368 129.796C223.368 130.882 223.651 131.118 224.124 131.118C225.209 131.118 226.909 129.985 227.617 129.229C228.325 128.521 228.986 127.53 228.986 126.255V123.233C228.986 122.147 228.703 121.911 228.231 121.911C227.145 121.911 225.445 123.045 224.737 123.8C224.029 124.508 223.368 125.594 223.368 126.822V129.796Z" fill="#3C4F69"/>
</g>
<path id="Shape_3" fill-rule="evenodd" clip-rule="evenodd" d="M270.536 157.743C270.536 141.88 275.305 134.468 288.807 134.468C302.074 134.468 306.842 141.597 306.889 154.533V156.988C306.889 159.065 306.04 160.435 303.301 160.435H276.249C276.06 160.435 275.966 160.482 275.966 160.718C276.249 171.152 278.751 175.967 290.649 175.967C294.898 175.967 298.061 175.07 302.263 173.465C303.396 173.04 303.537 173.607 303.537 174.126C303.537 175.542 302.027 178.8 300.469 179.367C297.825 180.311 293.906 181.019 290.082 181.019C275.068 181.019 270.536 174.173 270.536 157.743ZM275.966 155.193C275.966 155.382 276.061 155.477 276.249 155.477H301.177C301.461 155.477 301.461 155.382 301.461 155.193C301.461 146.223 300.516 139.33 288.997 139.33C278.327 139.33 276.249 145.09 275.966 155.193Z" fill="#3C4F69"/>
</g>
</g>
<defs>
<linearGradient id="paint0_linear" x1="73.9529" y1="223.783" x2="168.166" y2="180.622" gradientUnits="userSpaceOnUse">
<stop stop-color="#57FFED"/>
<stop offset="1" stop-color="#3179D1"/>
</linearGradient>
<linearGradient id="paint1_linear" x1="11.0407" y1="-56.1124" x2="-143.547" y2="89.781" gradientUnits="userSpaceOnUse">
<stop stop-color="#7285A8"/>
<stop offset="0.0849021" stop-color="#6A7D9E"/>
<stop offset="0.4897" stop-color="#475975"/>
<stop offset="0.8086" stop-color="#32435B"/>
<stop offset="1" stop-color="#2A3B52"/>
</linearGradient>
<linearGradient id="paint2_linear" x1="61.449" y1="66.5446" x2="-16.0841" y2="190.188" gradientUnits="userSpaceOnUse">
<stop stop-color="#7285A8"/>
<stop offset="0.0849021" stop-color="#6A7D9E"/>
<stop offset="0.4897" stop-color="#475975"/>
<stop offset="0.8086" stop-color="#32435B"/>
<stop offset="1" stop-color="#2A3B52"/>
</linearGradient>
</defs>
</svg>
